<?xml version="1.0" encoding="UTF-8"?>
<svg width="210mm" height="297mm" version="1.1" viewBox="0 0 210 297" xmlns="http://www.w3.org/2000/svg" xmlns:cc="http://creativecommons.org/ns#" xmlns:dc="http://purl.org/dc/elements/1.1/" xmlns:rdf="http://www.w3.org/1999/02/22-rdf-syntax-ns#">
 <defs>
  <filter id="Adobe_OpacityMaskFilter" x="575" y="47" width="83.1" height="98" filterUnits="userSpaceOnUse">
   <feColorMatrix values="1 0 0 0 0  0 1 0 0 0  0 0 1 0 0  0 0 0 1 0"/>
  </filter>
  <filter id="Adobe_OpacityMaskFilter_1_" x="575" y="47" width="75.3" height="87.1" filterUnits="userSpaceOnUse">
   <feColorMatrix values="1 0 0 0 0  0 1 0 0 0  0 0 1 0 0  0 0 0 1 0"/>
  </filter>
  <filter id="Adobe_OpacityMaskFilter_2_" x="575" y="47" width="75.3" height="87.1" filterUnits="userSpaceOnUse">
   <feColorMatrix values="1 0 0 0 0  0 1 0 0 0  0 0 1 0 0  0 0 0 1 0"/>
  </filter>
 </defs>
 <metadata>
  <rdf:RDF>
   <cc:Work rdf:about="">
    <dc:format>image/svg+xml</dc:format>
    <dc:type rdf:resource="http://purl.org/dc/dcmitype/StillImage"/>
    <dc:title/>
   </cc:Work>
  </rdf:RDF>
 </metadata>
 <g transform="matrix(.052917 0 0 .052917 47.058 64.256)">
  <g id="button">
   <path id="blue" class="st0" d="m1018 200h-986c-17.7 0-32-14.3-32-32v-136c0-17.7 14.3-32 32-32h986c17.7 0 32 14.3 32 32v136c0 17.7-14.3 32-32 32z"/>
  </g>
  <g id="donate">
   <path class="st1" d="m73.3 110.6c0-13.1 6.8-21.4 17.2-21.4 5.9 0 10.6 3.1 12.8 7.7h0.2v-17.6c0-3.3 2-5.1 4.8-5.1s4.9 1.8 4.9 5.1v47.9c0 3.1-2 4.9-4.8 4.9s-4.9-1.7-4.9-4.9v-3.2h-0.2c-2 4.8-6.4 8-12.9 8-10.4 0-17.1-8.2-17.1-21.4zm30.2 0c0-8.1-4-13.4-10.2-13.4-6.3 0-10.2 5.2-10.2 13.4s3.9 13.4 10.2 13.4c6.2 0 10.2-5.2 10.2-13.4z"/>
   <path class="st1" d="m205.5 131.7c-3.3 0-5.2-2-5.2-5.7v-19.7c0-5.4-2.7-8.5-7.5-8.5-5.4 0-8.7 3.9-8.7 10.4v17.8c0 3.6-1.9 5.7-5.2 5.7s-5.2-2-5.2-5.7v-31c0-3.4 2-5.5 5.1-5.5s4.9 1.8 5 5.2v2.5h0.5c1.6-4.9 6.3-8 12.3-8 8.8 0 13.8 5.2 13.8 14.3v22.5c0.2 3.7-1.6 5.7-4.9 5.7z"/>
   <path class="st1" d="m232 131.9c-8.1 0-13.6-5.1-13.6-12.6 0-7.7 5.7-12.4 15.1-12.4h9.8v-3.4c0-4.2-2.6-6.4-7.3-6.4-3.1 0-5.4 1.2-7.7 3.2-1.2 0.9-2.3 1.4-3.9 1.4-2.3 0-3.7-1.5-3.7-3.6 0-2.4 1.7-4.9 5.3-6.7 2.6-1.4 6.1-2.1 10.6-2.1 10.9 0 17 5.2 17 14.3v22.7c0 3.5-1.8 5.5-5 5.5-2.7 0-4.5-1.5-4.8-4.2v-1.4h-0.5c-2.2 3.6-6.3 5.7-11.3 5.7zm3.4-7.4c4.5 0 7.9-3 7.9-7v-4.3h-8c-4.2 0-6.7 2-6.7 5.4 0 3.5 2.8 5.9 6.8 5.9z"/>
   <path class="st1" d="m266.3 98.3h-2.1c-2.8 0-4.4-1.5-4.4-4s1.6-4 4.4-4h2.3v-5.4c0-3.6 1.8-5.5 5-5.5s5 2 5 5.5v5.4h4.1c2.8 0 4.4 1.5 4.4 4s-1.6 4-4.4 4h-4v20.9c0 3.8 1 5 4.1 5 1.1 0 1.8-0.2 2.7-0.2 1.8 0 3 1.2 3 3.1 0 1.5-0.7 2.8-2.1 3.7s-3.6 1.4-6.4 1.4c-8.2 0-11.7-3.4-11.7-11.9v-22z"/>
   <path class="st1" d="m291.3 108c0-11.3 7.5-19 18.6-19 10.5 0 18 7.5 18 17.7 0 4.6-1.3 6.2-5.2 6.2h-21v1.8c0 5.8 3.7 9.5 9.8 9.5 3.2 0 5.5-0.8 7.3-2.3 2-1.5 2.7-2.1 4.3-2.1 2.1 0 3.6 1.5 3.6 3.8 0 1.8-1.1 3.6-3.1 5-2.7 2.3-7.5 3.7-12.8 3.7-12.1 0-19.6-7.1-19.6-18.9v-5.4zm26.8-1.6c0-5.7-3.1-9.4-8-9.4-5.1 0-8.3 3.8-8.3 9.3v0.1z"/>
   <path class="st1" d="m359.5 97.1c-0.3-1.2-0.4-1.9-0.4-2.5 0-2.9 2.1-5 5.2-5 2.7 0 4.5 1.8 5 5.1l5.2 25.9h0.5l6.2-24.5c1.2-4.8 2.9-6.6 6.3-6.6s5.2 1.8 6.4 6.6l6.3 24.5h0.5l5.4-25.9c0.6-3.2 2.4-5.1 5-5.1 3.1 0 5 2 5 4.7 0 0.6-0.2 1.5-0.5 2.7l-7.2 26.5c-1.7 6.2-3.7 8.2-7.3 8.2-3.9 0-5.9-2-7.5-8.2l-6-21.8h-0.4l-5.8 21.8c-1.6 6.3-3.4 8.2-7.3 8.2-3.8 0-5.9-2.1-7.5-8.2z"/>
   <path class="st1" d="m426.9 74c3.4 0 5.9 2.3 5.9 5.4s-2.5 5.4-5.9 5.4c-3.3 0-5.8-2.3-5.8-5.4s2.5-5.4 5.8-5.4zm0 57.7c-3.2 0-5.1-2-5.1-5.7v-30.8c0-3.8 2-5.7 5.2-5.7s5.1 2 5.1 5.7v30.9c0 3.7-2 5.6-5.2 5.6z"/>
   <path class="st1" d="m444 98.3h-2.1c-2.8 0-4.4-1.5-4.4-4s1.6-4 4.4-4h2.3v-5.4c0-3.6 1.8-5.5 5-5.5s5 2 5 5.5v5.4h4.1c2.8 0 4.4 1.5 4.4 4s-1.6 4-4.4 4h-4v20.9c0 3.8 1 5 4.1 5 1.1 0 1.8-0.2 2.7-0.2 1.8 0 3 1.2 3 3.1 0 1.5-0.7 2.8-2.1 3.7s-3.6 1.4-6.4 1.4c-8.2 0-11.7-3.4-11.7-11.9v-22z"/>
   <path class="st1" d="m501.1 131.7c-3.3 0-5.2-2-5.2-5.7v-19.6c0-5.4-2.8-8.5-7.6-8.5-5.3 0-8.8 4-8.8 10.4v17.8c0 3.6-1.9 5.7-5.2 5.7s-5.1-2-5.1-5.7v-45.5c0-3.6 1.8-5.7 5.2-5.7 3.3 0 5.1 2.1 5.1 5.7v16.6h0.5c1.4-4.7 6.5-8 12.4-8 8.6 0 13.8 5.4 13.8 14.4v22.4c0.1 3.7-1.8 5.7-5.1 5.7z"/>
   <path id="heart_2_" class="st1" d="m154.3 89.2c-4.3 0-8.5 2.1-10.8 6.7-2.3-4.6-6.5-6.7-10.8-6.7-6.7 0-12.7 4.7-12.7 13.1 0 14.2 19.4 21.4 23.5 29.9 4.1-8.5 23.5-15.7 23.5-29.9 0-9-6.7-13.1-12.7-13.1zm-4.1 10c3 0 5.7 2 5.7 6 0 6.3-8.3 10.6-12.8 15.2-4.4-4.6-12.8-8.9-12.8-15.2 0-3.9 2.6-6 5.7-6 4.1 0 6.2 4.6 7 6.8 1-2.2 3.2-6.8 7.2-6.8z"/>
  </g>
  <g id="PayPal">
   <path class="st1" d="m888.7 89.7c-1.2 8-7.3 8-13.2 8h-3.4l2.4-14.9c0.1-0.9 0.9-1.6 1.8-1.6h1.5c4 0 7.8 0 9.7 2.3 1.3 1.4 1.6 3.4 1.2 6.2m-2.6-20.8h-22.2c-1.5 0-2.8 1.1-3 2.6l-9 56.9c-0.2 1 0.5 2 1.5 2.1h0.3 11.4c1.1 0 2-0.8 2.1-1.8l2.5-16.1c0.2-1.5 1.5-2.6 3.1-2.6h7c14.6 0 23.1-7.1 25.3-21.1 1-6.1 0-11-2.8-14.3-3.1-3.7-8.7-5.7-16.2-5.7m-155.9 20.8c-1.2 8-7.3 8-13.2 8h-3.4l2.4-14.9c0.1-0.9 0.9-1.6 1.8-1.6h1.5c4 0 7.8 0 9.7 2.3 1.3 1.4 1.7 3.4 1.2 6.2m-2.5-20.8h-22.2c-1.5 0-2.8 1.1-3.1 2.6l-9 56.9c-0.2 1 0.5 2 1.5 2.1h0.3 10.6c1.5 0 2.8-1.1 3-2.6l2.4-15.4c0.2-1.5 1.5-2.6 3-2.6h7c14.6 0 23.1-7.1 25.3-21.1 1-6.1 0-11-2.8-14.3-3-3.6-8.6-5.6-16-5.6m51.6 41.3c-1 6.1-5.9 10.2-12 10.2-3.1 0-5.6-1-7.1-2.9-1.6-1.9-2.2-4.5-1.7-7.5 1-6 5.9-10.2 11.9-10.2 3 0 5.5 1 7.1 2.9 1.6 1.8 2.2 4.5 1.8 7.5m14.8-20.7h-10.6c-0.9 0-1.7 0.7-1.8 1.6l-0.5 3-0.7-1.1c-2.3-3.3-7.4-4.5-12.6-4.5-11.8 0-21.8 8.9-23.7 21.4-1 6.2 0.4 12.2 4 16.3 3.2 3.8 7.9 5.4 13.4 5.4 9.5 0 14.7-6.1 14.7-6.1l-0.5 3c-0.2 1 0.5 2 1.5 2.1h0.3 9.6c1.5 0 2.8-1.1 3-2.6l5.8-36.4c0.2-1-0.5-2-1.5-2.1h-0.4m143.6 20.7c-1 6.1-5.9 10.2-12 10.2-3.1 0-5.6-1-7.1-2.9-1.6-1.9-2.2-4.5-1.7-7.5 1-6 5.9-10.2 11.9-10.2 3 0 5.5 1 7.1 2.9 1.6 1.8 2.3 4.5 1.8 7.5m14.8-20.7h-10.6c-0.9 0-1.7 0.7-1.8 1.6l-0.5 3-0.7-1.1c-2.3-3.3-7.4-4.5-12.6-4.5-11.8 0-21.8 8.9-23.7 21.4-1 6.2 0.4 12.2 4 16.3 3.2 3.8 7.9 5.4 13.4 5.4 9.5 0 14.7-6.1 14.7-6.1l-0.5 3c-0.2 1 0.5 2 1.5 2.1h0.3 9.6c1.5 0 2.8-1.1 3-2.6l5.8-36.4c0.2-1-0.5-2-1.5-2.1h-0.4m-101.8 0h-10.7c-1 0-2 0.5-2.6 1.4l-14.7 21.7-6.3-20.9c-0.4-1.3-1.6-2.2-3-2.2h-10.4c-1 0-1.9 0.8-1.9 1.9 0 0.2 0 0.4 0.1 0.6l11.8 34.5-11 15.6c-0.9 1.2 0 2.9 1.5 2.9h10.7c1 0 2-0.5 2.5-1.3l35.6-51.3c0.8-1.3-0.1-2.9-1.6-2.9m114.4-19-9.1 58c-0.2 1 0.5 2 1.5 2.1h0.3 9.2c1.5 0 2.8-1.1 3-2.6l9-56.9c0.2-1-0.5-2-1.5-2.1h-0.3-10.3c-0.9-0.1-1.7 0.6-1.8 1.5"/>
   <mask id="e_1_" x="575" y="47" width="83.1" height="98" maskUnits="userSpaceOnUse">
    <g class="st2">
     <path id="d_1_" class="st1" d="m575 47h83.1v98h-83.1z"/>
    </g>
   </mask>
   <path class="st3" d="m649.9 71.9c1.2-7.6 0-12.8-4.1-17.5-4.5-5.2-12.7-7.4-23.2-7.4h-30.6c-2.1 0-4 1.6-4.3 3.7l-12.7 80.4c-0.2 1.4 0.7 2.8 2.2 3h0.4 18.8l-1.3 8.2c-0.2 1.2 0.7 2.4 1.9 2.6h0.4 15.9c1.9 0 3.5-1.4 3.8-3.2l0.2-0.8 3-18.9 0.2-1c0.3-1.9 1.9-3.2 3.8-3.2h2.4c15.4 0 27.4-6.2 30.9-24.3 1.5-7.5 0.7-13.8-3.2-18.3-1.4-1.3-2.8-2.4-4.5-3.3" mask="url(#e_1_)"/>
   <mask id="g_1_" x="575" y="47" width="75.3" height="87.1" maskUnits="userSpaceOnUse">
    <g class="st4">
     <path id="f_1_" class="st1" d="m575 47h75.3v87.1h-75.3z"/>
    </g>
   </mask>
   <path class="st5" d="m649.9 71.9c1.2-7.6 0-12.8-4.1-17.5-4.5-5.2-12.7-7.4-23.2-7.4h-30.6c-2.1 0-4 1.6-4.3 3.7l-12.7 80.4c-0.2 1.4 0.7 2.8 2.2 3h0.4 18.8l4.7-30-0.1 0.9c0.3-2.1 2.1-3.7 4.3-3.7h8.9c17.6 0 31.3-7.1 35.3-27.8 0.2-0.4 0.3-1 0.4-1.6" mask="url(#g_1_)"/>
   <mask id="i_1_" x="575" y="47" width="75.3" height="87.1" maskUnits="userSpaceOnUse">
    <g class="st6">
     <path id="h_1_" class="st1" d="m575 47h75.3v87.1h-75.3z"/>
    </g>
   </mask>
   <path class="st7" d="m606.2 72c0.3-1.9 1.9-3.2 3.8-3.2h23.9c2.8 0 5.5 0.2 7.9 0.6 0.7 0.1 1.4 0.2 2 0.4 0.9 0.2 1.9 0.5 2.8 0.8 1.1 0.4 2.2 0.8 3.3 1.4 1.2-7.6 0-12.8-4.1-17.5-4.5-5.2-12.7-7.4-23.2-7.4h-30.6c-2.1 0-4 1.6-4.3 3.7l-12.7 80.3c-0.2 1.4 0.7 2.8 2.2 3h0.4 18.8l4.7-30z" mask="url(#i_1_)"/>
  </g>
 </g>
 <style type="text/css">.st0{fill:#009CDE;}
	.st1{fill:#FFFFFF;}
	.st2{filter:url(#Adobe_OpacityMaskFilter);}
	.st3{opacity:0.678;mask:url(#e_1_);fill:#FFFFFF;enable-background:new    ;}
	.st4{filter:url(#Adobe_OpacityMaskFilter_1_);}
	.st5{opacity:0.696;mask:url(#g_1_);fill:#FFFFFF;enable-background:new    ;}
	.st6{filter:url(#Adobe_OpacityMaskFilter_2_);}
	.st7{mask:url(#i_1_);fill:#FFFFFF;}</style>
</svg>
